<svg width="549" height="549" viewBox="0 0 549 549" fill="none" xmlns="http://www.w3.org/2000/svg">
<g filter="url(#filter0_dd_246_17222)">
<g clip-path="url(#clip0_246_17222)">
<g filter="url(#filter1_dd_246_17222)">
<rect x="58.7622" y="49.5674" width="431.658" height="431.658" rx="85.9659" fill="url(#paint0_linear_246_17222)"/>
</g>
<path d="M163.185 619.354C188.339 626.711 215.009 614.981 226.917 591.597C233.009 579.639 238.975 566.063 244.259 550.87C246.18 545.333 247.874 539.898 249.441 534.589C258.467 503.393 240.467 470.428 209.271 461.327C178.201 452.276 145.539 469.871 136.21 500.865C133.607 509.46 131.255 518.688 129.258 528.522C126.781 540.707 125.213 552.26 124.278 562.903C122.028 588.538 138.486 612.124 163.185 619.354Z" fill="white"/>
<path d="M386.006 619.354C360.877 626.711 334.181 614.981 322.274 591.597C316.182 579.639 310.215 566.063 304.932 550.87C303.01 545.333 301.317 539.898 299.749 534.589C290.724 503.393 308.699 470.428 339.92 461.327C370.99 452.276 403.652 469.871 412.98 500.865C415.584 509.46 417.935 518.688 419.932 528.522C422.41 540.707 423.977 552.235 424.913 562.903C427.163 588.538 410.705 612.124 386.006 619.354Z" fill="white"/>
<path d="M457.474 406.985C457.474 543.954 371.874 588.422 274.57 588.422C177.266 588.422 91.6914 543.979 91.6914 406.985C91.6914 269.99 158.053 148.24 274.595 148.24C391.138 148.24 457.499 269.99 457.499 406.985H457.474Z" fill="url(#paint1_linear_246_17222)"/>
<path d="M164.572 403.198C200.723 403.198 230.023 373.898 230.023 337.747C230.023 301.596 200.723 272.296 164.572 272.296C128.421 272.296 99.1206 301.596 99.1206 337.747C99.1206 373.898 128.421 403.198 164.572 403.198Z" fill="url(#paint2_radial_246_17222)"/>
<path d="M387.027 403.198C423.178 403.198 452.478 373.898 452.478 337.747C452.478 301.596 423.178 272.296 387.027 272.296C350.876 272.296 321.576 301.596 321.576 337.747C321.576 373.898 350.876 403.198 387.027 403.198Z" fill="url(#paint3_radial_246_17222)"/>
<path d="M379.788 444.303H169.379C140.332 444.303 116.846 468.193 118.54 496.709C118.54 496.962 118.565 497.215 118.59 497.467C121.321 536.526 147.587 554.803 169.581 566.989C187.96 577.177 220.42 587.162 261.905 589.21V589.488C266.203 589.615 270.425 589.64 274.571 589.589C278.717 589.64 282.938 589.615 287.236 589.488V589.21C328.721 587.137 361.181 577.151 379.56 566.989C401.554 554.829 427.821 536.526 430.551 497.467C430.551 497.215 430.576 496.962 430.601 496.709C432.295 468.193 408.81 444.303 379.763 444.303H379.788Z" fill="#FF8170"/>
<path d="M162.628 414.005C198.779 414.005 228.079 384.705 228.079 348.554C228.079 312.403 198.779 283.103 162.628 283.103C126.477 283.103 97.1768 312.403 97.1768 348.554C97.1768 384.705 126.477 414.005 162.628 414.005Z" fill="url(#paint4_radial_246_17222)"/>
<path d="M386.562 414.005C422.713 414.005 452.013 384.705 452.013 348.554C452.013 312.403 422.713 283.103 386.562 283.103C350.411 283.103 321.111 312.403 321.111 348.554C321.111 384.705 350.411 414.005 386.562 414.005Z" fill="url(#paint5_radial_246_17222)"/>
<path d="M131.837 368.34H149.078C158.356 368.34 165.89 375.873 165.89 385.151V476.06C165.89 480.863 161.997 484.781 157.168 484.781H140.508C135.705 484.781 131.787 480.888 131.787 476.06V368.314L131.837 368.34Z" fill="#FFB2A7"/>
<path d="M400.113 368.33H417.354V476.075C417.354 480.879 413.461 484.797 408.633 484.797H391.973C387.169 484.797 383.251 480.904 383.251 476.075V385.167C383.251 375.889 390.785 368.355 400.063 368.355L400.113 368.33Z" fill="#FFB2A7"/>
<path d="M148.876 471.353C152.869 471.353 156.106 468.116 156.106 464.123C156.106 460.13 152.869 456.893 148.876 456.893C144.883 456.893 141.646 460.13 141.646 464.123C141.646 468.116 144.883 471.353 148.876 471.353Z" fill="url(#paint6_linear_246_17222)"/>
<path d="M400.315 471.353C404.308 471.353 407.545 468.116 407.545 464.123C407.545 460.13 404.308 456.893 400.315 456.893C396.322 456.893 393.085 460.13 393.085 464.123C393.085 468.116 396.322 471.353 400.315 471.353Z" fill="url(#paint7_linear_246_17222)"/>
<path d="M229.545 319.067C235.941 319.067 241.124 313.884 241.124 307.488C241.124 301.092 235.941 295.91 229.545 295.91C223.149 295.91 217.967 301.092 217.967 307.488C217.967 313.884 223.149 319.067 229.545 319.067Z" fill="#3D3B3B"/>
<path d="M319.644 319.067C326.04 319.067 331.197 313.884 331.197 307.488C331.197 301.092 326.015 295.91 319.644 295.91C313.274 295.91 308.066 301.092 308.066 307.488C308.066 313.884 313.248 319.067 319.644 319.067Z" fill="#3D3B3B"/>
<path d="M290.294 321.559C288.322 321.559 286.628 321.888 285.769 322.115C282.861 322.798 279.044 323.632 275.024 323.632C270.348 323.632 265.873 322.722 261.702 321.761C260.792 321.534 259.831 321.433 258.794 321.433C252.095 321.433 247.267 326.034 247.267 332.379C247.267 344.539 259.25 354.07 274.595 354.07C289.94 354.07 301.923 344.539 301.923 332.379C301.923 325.933 297.246 321.61 290.269 321.61H290.294V321.559Z" fill="#F88881"/>
<path d="M63.8388 322.498C25.1334 334.538 21.7896 378.724 30.5557 413.195C36.532 439.387 51.0629 464.727 77.3551 472.805C105.534 481.988 139.33 465.271 148.116 436.676C155.325 415.834 149.756 391.405 139.764 369.716C126.318 338.379 99.0184 311.272 64.4684 322.342L63.8449 322.542L63.8198 322.523L63.8388 322.498Z" fill="url(#paint8_linear_246_17222)"/>
<path d="M485.35 322.498C524.056 334.538 527.399 378.724 518.633 413.195C512.657 439.387 498.126 464.727 471.834 472.805C443.655 481.988 409.859 465.271 401.073 436.676C393.864 415.834 399.433 391.405 409.425 369.716C422.871 338.379 450.171 311.272 484.721 322.342L485.344 322.542L485.369 322.523L485.35 322.498Z" fill="url(#paint9_linear_246_17222)"/>
<path d="M260.235 79.7033C266.275 79.4169 271.62 82.5493 274.498 87.3202C274.498 87.3202 274.512 87.327 274.526 87.3337C277.209 82.6904 282.198 79.5433 287.951 79.4573C296.838 79.3269 304.017 86.7489 303.976 95.6364C303.932 104.044 301.191 109.565 294.688 116.616C291.49 120.082 286.795 123.05 282.775 125.204C277.831 127.844 271.9 127.91 266.921 125.352C262.836 123.268 258.075 120.373 254.813 116.969C248.186 110.024 245.399 104.546 245.21 96.126C245.027 87.6581 251.775 80.1126 260.228 79.7171L260.235 79.7033Z" fill="white"/>
</g>
</g>
<defs>
<filter id="filter0_dd_246_17222" x="0.232263" y="0.182743" width="548.718" height="548.718" filterUnits="userSpaceOnUse" color-interpolation-filters="sRGB">
<feFlood flood-opacity="0" result="BackgroundImageFix"/>
<feColorMatrix in="SourceAlpha" type="matrix" values="0 0 0 0 0 0 0 0 0 0 0 0 0 0 0 0 0 0 127 0" result="hardAlpha"/>
<feMorphology radius="3.65812" operator="dilate" in="SourceAlpha" result="effect1_dropShadow_246_17222"/>
<feOffset dy="9.1453"/>
<feGaussianBlur stdDeviation="27.4359"/>
<feComposite in2="hardAlpha" operator="out"/>
<feColorMatrix type="matrix" values="0 0 0 0 0 0 0 0 0 0 0 0 0 0 0 0 0 0 0.05 0"/>
<feBlend mode="normal" in2="BackgroundImageFix" result="effect1_dropShadow_246_17222"/>
<feColorMatrix in="SourceAlpha" type="matrix" values="0 0 0 0 0 0 0 0 0 0 0 0 0 0 0 0 0 0 127 0" result="hardAlpha"/>
<feOffset dy="7.31624"/>
<feGaussianBlur stdDeviation="9.1453"/>
<feComposite in2="hardAlpha" operator="out"/>
<feColorMatrix type="matrix" values="0 0 0 0 0 0 0 0 0 0 0 0 0 0 0 0 0 0 0.1 0"/>
<feBlend mode="normal" in2="effect1_dropShadow_246_17222" result="effect2_dropShadow_246_17222"/>
<feBlend mode="normal" in="SourceGraphic" in2="effect2_dropShadow_246_17222" result="shape"/>
</filter>
<filter id="filter1_dd_246_17222" x="0.232263" y="0.182743" width="548.718" height="548.718" filterUnits="userSpaceOnUse" color-interpolation-filters="sRGB">
<feFlood flood-opacity="0" result="BackgroundImageFix"/>
<feColorMatrix in="SourceAlpha" type="matrix" values="0 0 0 0 0 0 0 0 0 0 0 0 0 0 0 0 0 0 127 0" result="hardAlpha"/>
<feMorphology radius="3.65812" operator="dilate" in="SourceAlpha" result="effect1_dropShadow_246_17222"/>
<feOffset dy="9.1453"/>
<feGaussianBlur stdDeviation="27.4359"/>
<feComposite in2="hardAlpha" operator="out"/>
<feColorMatrix type="matrix" values="0 0 0 0 0 0 0 0 0 0 0 0 0 0 0 0 0 0 0.05 0"/>
<feBlend mode="normal" in2="BackgroundImageFix" result="effect1_dropShadow_246_17222"/>
<feColorMatrix in="SourceAlpha" type="matrix" values="0 0 0 0 0 0 0 0 0 0 0 0 0 0 0 0 0 0 127 0" result="hardAlpha"/>
<feOffset dy="7.31624"/>
<feGaussianBlur stdDeviation="9.1453"/>
<feComposite in2="hardAlpha" operator="out"/>
<feColorMatrix type="matrix" values="0 0 0 0 0 0 0 0 0 0 0 0 0 0 0 0 0 0 0.1 0"/>
<feBlend mode="normal" in2="effect1_dropShadow_246_17222" result="effect2_dropShadow_246_17222"/>
<feBlend mode="normal" in="SourceGraphic" in2="effect2_dropShadow_246_17222" result="shape"/>
</filter>
<linearGradient id="paint0_linear_246_17222" x1="89.8198" y1="82.8161" x2="481.332" y2="481.226" gradientUnits="userSpaceOnUse">
<stop stop-color="#FF9F89"/>
<stop offset="0.555" stop-color="#FF7B69"/>
</linearGradient>
<linearGradient id="paint1_linear_246_17222" x1="274.595" y1="17131.8" x2="274.595" y2="17131.8" gradientUnits="userSpaceOnUse">
<stop stop-color="#FCF1ED"/>
<stop offset="0.14" stop-color="#FDF7F5"/>
<stop offset="0.37" stop-color="#FFFCFC"/>
<stop offset="1" stop-color="white"/>
</linearGradient>
<radialGradient id="paint2_radial_246_17222" cx="0" cy="0" r="1" gradientUnits="userSpaceOnUse" gradientTransform="translate(164.237 341.702) scale(87.091 87.0911)">
<stop stop-color="#FFCDBF" stop-opacity="0.6"/>
<stop offset="1" stop-color="white" stop-opacity="0"/>
</radialGradient>
<radialGradient id="paint3_radial_246_17222" cx="0" cy="0" r="1" gradientUnits="userSpaceOnUse" gradientTransform="translate(386.692 341.702) scale(87.091 87.0911)">
<stop stop-color="#FFCDBF" stop-opacity="0.6"/>
<stop offset="1" stop-color="white" stop-opacity="0"/>
</radialGradient>
<radialGradient id="paint4_radial_246_17222" cx="0" cy="0" r="1" gradientUnits="userSpaceOnUse" gradientTransform="translate(162.044 336741) scale(43.5456 43.5455)">
<stop stop-color="#F6CFC4" stop-opacity="0.6"/>
<stop offset="0.13" stop-color="#F7D1C6" stop-opacity="0.57"/>
<stop offset="0.3" stop-color="#F7D7CD" stop-opacity="0.5"/>
<stop offset="0.51" stop-color="#F9DFD8" stop-opacity="0.38"/>
<stop offset="0.75" stop-color="#FBEDE9" stop-opacity="0.21"/>
<stop offset="1" stop-color="white" stop-opacity="0"/>
</radialGradient>
<radialGradient id="paint5_radial_246_17222" cx="0" cy="0" r="1" gradientUnits="userSpaceOnUse" gradientTransform="translate(386.003 336741) scale(87.0911)">
<stop stop-color="#F6CFC4" stop-opacity="0.6"/>
<stop offset="0.13" stop-color="#F7D1C6" stop-opacity="0.57"/>
<stop offset="0.3" stop-color="#F7D7CD" stop-opacity="0.5"/>
<stop offset="0.51" stop-color="#F9DFD8" stop-opacity="0.38"/>
<stop offset="0.75" stop-color="#FBEDE9" stop-opacity="0.21"/>
<stop offset="1" stop-color="white" stop-opacity="0"/>
</radialGradient>
<linearGradient id="paint6_linear_246_17222" x1="141.646" y1="464.123" x2="156.081" y2="464.123" gradientUnits="userSpaceOnUse">
<stop stop-color="#FCF1ED"/>
<stop offset="0.14" stop-color="#FDF7F5"/>
<stop offset="0.37" stop-color="#FFFCFC"/>
<stop offset="1" stop-color="white"/>
</linearGradient>
<linearGradient id="paint7_linear_246_17222" x1="393.11" y1="464.123" x2="407.545" y2="464.123" gradientUnits="userSpaceOnUse">
<stop stop-color="#FCF1ED"/>
<stop offset="0.14" stop-color="#FDF7F5"/>
<stop offset="0.37" stop-color="#FFFCFC"/>
<stop offset="1" stop-color="white"/>
</linearGradient>
<linearGradient id="paint8_linear_246_17222" x1="105.459" y1="324.385" x2="72.2833" y2="471.905" gradientUnits="userSpaceOnUse">
<stop stop-color="#FCF1ED"/>
<stop offset="0.14" stop-color="#FDF7F5"/>
<stop offset="0.37" stop-color="#FFFCFC"/>
<stop offset="1" stop-color="white"/>
</linearGradient>
<linearGradient id="paint9_linear_246_17222" x1="443.73" y1="324.385" x2="476.906" y2="471.905" gradientUnits="userSpaceOnUse">
<stop stop-color="#FCF1ED"/>
<stop offset="0.14" stop-color="#FDF7F5"/>
<stop offset="0.37" stop-color="#FFFCFC"/>
<stop offset="1" stop-color="white"/>
</linearGradient>
<clipPath id="clip0_246_17222">
<rect x="58.7622" y="49.5674" width="431.658" height="431.658" rx="85.9608" fill="white"/>
</clipPath>
</defs>
</svg>
