<svg width="40" height="40" viewBox="0 0 40 40" fill="none" xmlns="http://www.w3.org/2000/svg">
<path d="M7.10203 34.1833C4.20275 34.1833 2.39237 31.0428 3.84534 28.5339L16.3871 6.87737C17.8367 4.37421 21.4508 4.37421 22.9005 6.87737L35.4422 28.5339C36.8952 31.0428 35.0848 34.1833 32.1855 34.1833H7.10203Z" fill="#D0D0D0"/>
<path d="M19.9422 28.3333C20.8418 28.3333 21.5094 27.6408 21.5094 26.7355V26.698C21.5094 25.7927 20.8418 25.1001 19.9422 25.1001C19.0427 25.1001 18.3751 25.7968 18.3751 26.698V26.7355C18.3751 27.6408 19.0427 28.3333 19.9422 28.3333Z" fill="white"/>
<path d="M20.7698 23.0309L21.5454 15.9637C21.5973 15.4172 21.3095 15.0042 20.8218 15H19.0587C18.571 15 18.2871 15.413 18.3391 15.9595L19.1147 23.0309C19.1667 23.5357 19.4905 23.8569 19.9422 23.8569C20.394 23.8569 20.7178 23.5399 20.7698 23.0309Z" fill="white"/>
</svg>
